<svg width="58" height="58" viewBox="0 0 58 58" fill="none" xmlns="http://www.w3.org/2000/svg">
<g id="pagination-default.svg" clip-path="url(#clip0_192_1638)">
<g id="Blog---Single-post">
<g id="Gravity-Team---Single-Blog-Post">
<g id="featured-posts">
<g id="Group">
<path id="Oval" d="M29.0001 0.491516C44.7449 0.491516 57.5085 13.2552 57.5085 29C57.5085 44.7448 44.7449 57.5085 29.0001 57.5085C13.2553 57.5085 0.491596 44.7448 0.491596 29C0.491596 13.2552 13.2553 0.491516 29.0001 0.491516ZM29.0001 1.47457C13.7982 1.47457 1.47465 13.7981 1.47465 29C1.47465 44.2019 13.7982 56.5254 29.0001 56.5254C44.2019 56.5254 56.5255 44.2019 56.5255 29C56.5255 13.7981 44.2019 1.47457 29.0001 1.47457Z" fill="url(#paint0_linear_192_1638)"/>
<g id="icon/arrow">
<g id="Group_2">
<path id="Fill-1" fill-rule="evenodd" clip-rule="evenodd" d="M19.14 28.8513L26.6899 20.9352C27.0419 20.575 27.6133 20.5332 28.0244 20.8988C28.3912 21.2244 28.4004 21.861 28.0612 22.2157L22.0006 28.5603H37.3953C37.9169 28.5603 38.339 28.9768 38.339 29.4916C38.339 30.0064 37.9169 30.4229 37.3953 30.4229H22.0006L28.0612 36.7675C28.4004 37.1222 28.3764 37.7425 28.0244 38.0844C27.652 38.4446 27.0364 38.4136 26.6899 38.048L19.14 30.1319C18.9188 29.9172 18.8783 29.7099 18.8746 29.4916C18.8746 29.277 19.0073 28.9896 19.14 28.8513Z" fill="url(#paint1_linear_192_1638)"/>
</g>
</g>
</g>
</g>
</g>
</g>
</g>
<defs>
<linearGradient id="paint0_linear_192_1638" x1="57.5085" y1="0.491516" x2="0.491596" y2="57.5085" gradientUnits="userSpaceOnUse">
<stop stop-color="#665DCD"/>
<stop offset="0.447624" stop-color="#5FA4E6"/>
<stop offset="1" stop-color="#D2AB67"/>
</linearGradient>
<linearGradient id="paint1_linear_192_1638" x1="38.339" y1="22.1796" x2="20.4031" y2="38.4849" gradientUnits="userSpaceOnUse">
<stop stop-color="#665DCD"/>
<stop offset="0.447624" stop-color="#5FA4E6"/>
<stop offset="1" stop-color="#D2AB67"/>
</linearGradient>
<clipPath id="clip0_192_1638">
<rect width="58" height="58" fill="white"/>
</clipPath>
</defs>
</svg>
