<!DOCTYPE svg PUBLIC "-//W3C//DTD SVG 1.1//EN" "http://www.w3.org/Graphics/SVG/1.1/DTD/svg11.dtd">
<!-- Uploaded to: SVG Repo, www.svgrepo.com, Transformed by: SVG Repo Mixer Tools -->
<svg height="800px" width="800px" version="1.1" id="Uploaded to svgrepo.com" xmlns="http://www.w3.org/2000/svg" xmlns:xlink="http://www.w3.org/1999/xlink" viewBox="-3.2 -3.2 38.40 38.40" xml:space="preserve" fill="#000000">
<g id="SVGRepo_bgCarrier" stroke-width="0">
<rect x="-3.2" y="-3.2" width="38.40" height="38.40" rx="19.2" fill="#d4c8ea" strokewidth="0"/>
</g>
<g id="SVGRepo_tracerCarrier" stroke-linecap="round" stroke-linejoin="round"/>
<g id="SVGRepo_iconCarrier"> <style type="text/css"> .hatch_een{fill:#000000;} .hatch_twee{fill:#f02400;} </style> <g> <g> <path class="hatch_twee" d="M18.817,8.644L9.462,18h1.414l8.119-8.119C18.989,9.419,18.928,9.02,18.817,8.644z"/> <path class="hatch_twee" d="M22.875,18l2.032-2.032c0.059-0.402,0.065-0.863-0.021-1.393L21.461,18H22.875z"/> <path class="hatch_twee" d="M20.839,3.868c0.026,0.032,0.048,0.063,0.073,0.096l0.114-0.113 C20.965,3.854,20.895,3.861,20.839,3.868z"/> <path class="hatch_twee" d="M7.737,17.138l10.24-10.239c-0.095-0.155-0.197-0.305-0.302-0.475l-0.1-0.16 c-0.052-0.083-0.082-0.167-0.127-0.25l-4.566,4.565c0.031,0.283,0.061,0.512,0.082,0.655c0.01,0.063,0.02,0.127,0.029,0.191 c0.041,0.271-0.145,0.524-0.415,0.568c-0.269,0.04-0.525-0.139-0.572-0.409c-0.002-0.015-0.009-0.057-0.018-0.112l-4.662,4.662 C7.453,16.517,7.596,16.855,7.737,17.138z"/> <path class="hatch_twee" d="M17.461,18h1.414l5.399-5.399c-0.132-0.433-0.156-0.869-0.114-1.3L17.461,18z"/> <path class="hatch_twee" d="M19.704,11.847c-0.052,0.055-0.123,0.075-0.19,0.101L13.462,18h1.414L24.951,7.924 c0.001-0.02,0.003-0.039,0.003-0.059c0.005-0.435-0.058-0.832-0.171-1.187l-4.611,4.611C19.92,11.613,19.73,11.82,19.704,11.847z"/> <path class="hatch_twee" d="M10.246,6.63c-0.223-0.304-0.452-0.546-0.668-0.746L9.035,6.427C9.098,6.967,9.09,7.434,9.02,7.856 L10.246,6.63z"/> <path class="hatch_twee" d="M11.523,9.353c-0.114-0.382-0.237-0.73-0.367-1.047l-3.998,3.998 c-0.132,0.563-0.191,1.103-0.192,1.606L11.523,9.353z"/> <path class="hatch_twee" d="M21.911,6.747c0.002,0.08-0.015,0.156-0.017,0.235l1.884-1.884c-0.256-0.249-0.527-0.454-0.79-0.624 l-1.234,1.234C21.841,6.044,21.902,6.388,21.911,6.747z"/> <path class="hatch_twee" d="M12.752,8.124l4.283-4.283c0.02-0.122,0.028-0.245,0.063-0.367c0.296-1.022,1.07-1.792,1.716-2.283 c-0.163-0.034-0.309-0.058-0.466-0.077L12.83,6.631C12.778,7.135,12.755,7.639,12.752,8.124z"/> </g> <path class="hatch_een" d="M26.743,18.331C26.553,18.12,26.283,18,26,18h-0.853c0.68-0.981,1.33-2.77,0.151-5.49 c-0.354-0.813-0.063-1.737,0.244-2.715c0.199-0.635,0.405-1.292,0.412-1.918c0.031-2.689-1.97-4.077-3.165-4.665 c-1.537-0.756-3.025-0.103-3.088-0.074c-0.152,0.068-0.261,0.208-0.288,0.373s0.028,0.332,0.15,0.447 c0.867,0.819,1.321,1.764,1.348,2.809c0.028,1.132-0.439,2.214-0.921,3.02c-0.041-1.599-0.649-2.577-1.466-3.89l-0.1-0.16 c-0.431-0.694-0.551-1.342-0.366-1.981c0.405-1.409,2.161-2.281,2.179-2.29c0.181-0.088,0.291-0.276,0.28-0.477 c-0.011-0.2-0.141-0.375-0.33-0.443c-2.898-1.041-5.068-0.391-7.032,2.114c-0.928,1.183-1.28,2.936-1.377,4.576 c-1.5-3.043-3.604-3.197-3.722-3.204C7.908,4.026,7.726,4.101,7.626,4.238S7.504,4.555,7.565,4.712 c1.022,2.626,0.36,3.716-0.34,4.871c-0.198,0.328-0.403,0.666-0.561,1.033C5.224,13.991,6.309,16.705,7.061,18H6 c-0.283,0-0.553,0.12-0.743,0.331s-0.281,0.492-0.251,0.774c0.358,3.41,2.772,6.031,6.995,7.612V31c0,0.552,0.448,1,1,1h6 c0.552,0,1-0.448,1-1v-4.284c4.223-1.58,6.637-4.201,6.995-7.612C27.024,18.823,26.933,18.541,26.743,18.331z M7.585,11.009 c0.129-0.302,0.307-0.596,0.496-0.907c0.64-1.054,1.418-2.337,0.745-4.77c0.959,0.534,2.492,2,3.142,6.001 c0.021,0.139,0.035,0.226,0.039,0.252c0.047,0.27,0.304,0.449,0.572,0.409c0.271-0.043,0.456-0.297,0.415-0.568 c-0.01-0.064-0.02-0.128-0.029-0.191c-0.145-0.991-0.733-5.777,0.978-7.958c1.433-1.828,2.927-2.486,4.872-2.086 c-0.646,0.491-1.42,1.261-1.716,2.283c-0.265,0.915-0.104,1.854,0.477,2.79l0.1,0.16c1.064,1.711,1.599,2.571,1.177,4.99 c-0.038,0.217,0.07,0.433,0.266,0.532c0.197,0.101,0.435,0.06,0.587-0.099c0.093-0.097,2.272-2.395,2.207-5.1 c-0.025-1.054-0.386-2.019-1.072-2.878c0.416-0.05,0.962-0.028,1.509,0.241c0.984,0.484,2.631,1.616,2.606,3.756 c-0.005,0.479-0.181,1.038-0.366,1.629c-0.333,1.058-0.709,2.258-0.208,3.413c1.385,3.193-0.114,4.733-0.547,5.092H8.248 C7.746,17.293,6.077,14.541,7.585,11.009z M19,26.009V31h-6v-4.991C9.529,24.853,6.394,22.754,6,19h20 C25.606,22.754,22.471,24.853,19,26.009z"/> </g> </g>
</svg>