<!DOCTYPE svg PUBLIC "-//W3C//DTD SVG 1.1//EN" "http://www.w3.org/Graphics/SVG/1.1/DTD/svg11.dtd">
<!-- Uploaded to: SVG Repo, www.svgrepo.com, Transformed by: SVG Repo Mixer Tools -->
<svg fill="#360481" height="800px" width="800px" version="1.1" id="Layer_1" xmlns="http://www.w3.org/2000/svg" xmlns:xlink="http://www.w3.org/1999/xlink" viewBox="-49.6 -49.6 595.20 595.20" xml:space="preserve">
<g id="SVGRepo_bgCarrier" stroke-width="0" transform="translate(0,0), scale(1)"/>
<g id="SVGRepo_tracerCarrier" stroke-linecap="round" stroke-linejoin="round"/>
<g id="SVGRepo_iconCarrier"> <g> <g> <path d="M409.6,0.936c-14.368-2.8-28.976,0.832-40.096,9.992c-0.515,0.424-1.009,0.868-1.504,1.31V0H248H128v12.238 c-0.495-0.443-0.989-0.886-1.504-1.31c-11.12-9.16-25.728-12.776-40.096-9.992C64.152,5.28,48,25.8,48,49.72 c0,26.768,11.976,51.728,32.808,68.44l86.784,70.776c5.344,4.36,8.408,10.816,8.408,17.704c0,9.128-6.784,16.896-15.12,17.336 c-4.392,0.28-8.672-1.312-11.888-4.376c-3.224-3.048-4.992-7.168-4.992-11.6h-16c0,8.736,3.632,17.192,9.968,23.208 c6.016,5.704,13.776,8.792,22.016,8.792c0.568,0,1.144-0.016,1.72-0.04c15.007-0.784,27.13-12.291,29.76-27.231 c2.941,2.999,5.965,5.927,9.088,8.767l5.259,4.781C197.659,230.117,192,238.409,192,248c0,11.051,7.513,20.378,17.697,23.154 c-1.091,2.74-1.697,5.723-1.697,8.846c0,10.428,6.689,19.32,16,22.623V368h-64v112h-16v16h208v-16h-16V368h-64v-65.377 c9.311-3.303,16-12.196,16-22.623c0-3.123-0.606-6.106-1.697-8.846C296.487,268.378,304,259.051,304,248 c0-9.589-5.657-17.88-13.807-21.721l5.255-4.775c3.123-2.84,6.148-5.769,9.089-8.768c2.632,14.936,14.754,26.44,29.759,27.224 c0.568,0.024,1.144,0.04,1.72,0.04c8.24,0,16-3.088,22.016-8.792C364.368,225.192,368,216.736,368,208h-16 c0,4.432-1.768,8.552-4.992,11.6c-3.216,3.064-7.44,4.64-11.88,4.376c-8.344-0.44-15.128-8.208-15.128-17.336 c0-6.888,3.064-13.344,8.4-17.696l86.744-70.744C436.024,101.448,448,76.488,448,49.72C448,25.8,431.848,5.28,409.6,0.936z M90.864,105.712C73.792,92.016,64,71.608,64,49.72c0-16.28,10.712-30.2,25.472-33.08c9.8-1.928,19.336,0.456,26.856,6.64 C123.744,29.392,128,38.4,128,48c0,17.648-14.352,32-32,32v16c12.989,0,24.779-5.191,33.429-13.598 c2.847,25.031,9.943,49.293,20.828,71.754L90.864,105.712z M208,384h80v64h-80V384z M320,480H176v-96h16v80h112v-80h16V480z M240,368v-64h16v64H240z M264,288h-32c-4.408,0-8-3.584-8-8c0-4.416,3.592-8,8-8h32c4.408,0,8,3.584,8,8 C272,284.416,268.408,288,264,288z M280,256h-16h-32h-16c-4.408,0-8-3.584-8-8s3.592-8,8-8h64c4.408,0,8,3.584,8,8 C288,252.416,284.408,256,280,256z M284.68,209.656L268.904,224h-41.807l-15.776-14.344C168.536,170.768,144,115.304,144,57.488 V16h104h104v41.488C352,115.296,327.464,170.768,284.68,209.656z M405.088,105.744l-59.336,48.398 c10.881-22.458,17.974-46.716,20.819-71.74C375.221,90.809,387.011,96,400,96V80c-17.648,0-32-14.352-32-32 c0-9.6,4.256-18.608,11.672-24.72c7.52-6.192,17.056-8.584,26.856-6.64C421.288,19.528,432,33.44,432,49.72 C432,71.608,422.208,92.016,405.088,105.744z"/> </g> </g> </g>
</svg>